<?xml version="1.0" encoding="UTF-8" standalone="no"?>
<svg
   xmlns:ooo="http://xml.openoffice.org/svg/export"
   xmlns:dc="http://purl.org/dc/elements/1.1/"
   xmlns:cc="http://creativecommons.org/ns#"
   xmlns:rdf="http://www.w3.org/1999/02/22-rdf-syntax-ns#"
   xmlns:svg="http://www.w3.org/2000/svg"
   xmlns="http://www.w3.org/2000/svg"
   xmlns:sodipodi="http://sodipodi.sourceforge.net/DTD/sodipodi-0.dtd"
   xmlns:inkscape="http://www.inkscape.org/namespaces/inkscape"
   version="1.2"
   width="541"
   height="536"
   viewBox="0 0 15268.272 15127.107"
   preserveAspectRatio="xMidYMid"
   clip-path="url(#presentation_clip_path)"
   xml:space="preserve"
   id="svg3336"
   inkscape:version="0.91 r13725"
   sodipodi:docname="NeveraIcono.svg"
   inkscape:export-filename="C:\Users\Alberto\Desktop\NeveraIcono.png"
   inkscape:export-xdpi="90"
   inkscape:export-ydpi="90"
   style="fill-rule:evenodd;stroke-width:28.22200012;stroke-linejoin:round"><metadata
     id="metadata3492"><rdf:RDF><cc:Work
         rdf:about=""><dc:format>image/svg+xml</dc:format><dc:type
           rdf:resource="http://purl.org/dc/dcmitype/StillImage" /><dc:title></dc:title></cc:Work></rdf:RDF></metadata><sodipodi:namedview
     pagecolor="#ffffff"
     bordercolor="#666666"
     borderopacity="1"
     objecttolerance="10"
     gridtolerance="10"
     guidetolerance="10"
     inkscape:pageopacity="0"
     inkscape:pageshadow="2"
     inkscape:window-width="1680"
     inkscape:window-height="988"
     id="namedview3490"
     showgrid="false"
     inkscape:zoom="0.75164235"
     inkscape:cx="124.92097"
     inkscape:cy="526.1811"
     inkscape:window-x="-8"
     inkscape:window-y="-8"
     inkscape:window-maximized="1"
     inkscape:current-layer="svg3336"
     units="px" /><defs
     class="ClipPathGroup"
     id="defs3338"><clipPath
       id="presentation_clip_path"
       clipPathUnits="userSpaceOnUse"><rect
         x="0"
         y="0"
         width="21000"
         height="29700"
         id="rect3341" /></clipPath></defs><defs
     class="TextShapeIndex"
     id="defs3343"><g
       ooo:slide="id1"
       ooo:id-list="id3 id4 id5 id6 id7 id8 id9 id10 id11 id12 id13 id14 id15 id16 id17 id18 id19 id20"
       id="g3345" /></defs><defs
     class="EmbeddedBulletChars"
     id="defs3347"><g
       id="bullet-char-template(57356)"
       transform="scale(4.8828125e-4,-4.8828125e-4)"><path
         d="M 580,1141 1163,571 580,0 -4,571 580,1141 Z"
         id="path3350"
         inkscape:connector-curvature="0" /></g><g
       id="bullet-char-template(57354)"
       transform="scale(4.8828125e-4,-4.8828125e-4)"><path
         d="m 8,1128 1129,0 L 1137,0 8,0 8,1128 Z"
         id="path3353"
         inkscape:connector-curvature="0" /></g><g
       id="bullet-char-template(10146)"
       transform="scale(4.8828125e-4,-4.8828125e-4)"><path
         d="M 174,0 602,739 174,1481 1456,739 174,0 Z m 1184,739 -1049,607 350,-607 699,0 z"
         id="path3356"
         inkscape:connector-curvature="0" /></g><g
       id="bullet-char-template(10132)"
       transform="scale(4.8828125e-4,-4.8828125e-4)"><path
         d="M 2015,739 1276,0 717,0 l 543,543 -1086,0 0,393 1086,0 -543,545 557,0 741,-742 z"
         id="path3359"
         inkscape:connector-curvature="0" /></g><g
       id="bullet-char-template(10007)"
       transform="scale(4.8828125e-4,-4.8828125e-4)"><path
         d="m 0,-2 c -7,16 -16,29 -25,39 l 381,530 c -94,256 -141,385 -141,387 0,25 13,38 40,38 9,0 21,-2 34,-5 21,4 42,12 65,25 l 27,-13 111,-251 280,301 64,-25 24,25 c 21,-10 41,-24 62,-43 C 886,937 835,863 770,784 769,783 710,716 594,584 L 774,223 c 0,-27 -21,-55 -63,-84 l 16,-20 C 717,90 699,76 672,76 641,76 570,178 457,381 L 164,-76 c -22,-34 -53,-51 -92,-51 -42,0 -63,17 -64,51 -7,9 -10,24 -10,44 0,9 1,19 2,30 z"
         id="path3362"
         inkscape:connector-curvature="0" /></g><g
       id="bullet-char-template(10004)"
       transform="scale(4.8828125e-4,-4.8828125e-4)"><path
         d="M 285,-33 C 182,-33 111,30 74,156 52,228 41,333 41,471 c 0,78 14,145 41,201 34,71 87,106 158,106 53,0 88,-31 106,-94 l 23,-176 c 8,-64 28,-97 59,-98 l 735,706 c 11,11 33,17 66,17 42,0 63,-15 63,-46 l 0,-122 c 0,-36 -10,-64 -30,-84 L 442,47 C 390,-6 338,-33 285,-33 Z"
         id="path3365"
         inkscape:connector-curvature="0" /></g><g
       id="bullet-char-template(9679)"
       transform="scale(4.8828125e-4,-4.8828125e-4)"><path
         d="M 813,0 C 632,0 489,54 383,161 276,268 223,411 223,592 c 0,181 53,324 160,431 106,107 249,161 430,161 179,0 323,-54 432,-161 108,-107 162,-251 162,-431 0,-180 -54,-324 -162,-431 C 1136,54 992,0 813,0 Z"
         id="path3368"
         inkscape:connector-curvature="0" /></g><g
       id="bullet-char-template(8226)"
       transform="scale(4.8828125e-4,-4.8828125e-4)"><path
         d="m 346,457 c -73,0 -137,26 -191,78 -54,51 -81,114 -81,188 0,73 27,136 81,188 54,52 118,78 191,78 73,0 134,-26 185,-79 51,-51 77,-114 77,-187 0,-75 -25,-137 -76,-188 -50,-52 -112,-78 -186,-78 z"
         id="path3371"
         inkscape:connector-curvature="0" /></g><g
       id="bullet-char-template(8211)"
       transform="scale(4.8828125e-4,-4.8828125e-4)"><path
         d="m -4,459 1139,0 0,147 -1139,0 0,-147 z"
         id="path3374"
         inkscape:connector-curvature="0" /></g></defs><defs
     class="TextEmbeddedBitmaps"
     id="defs3376" /><g
     id="g3378"
     transform="translate(0,-14572.965)"><g
       id="id2"
       class="Master_Slide"><g
         id="bg-id2"
         class="Background" /><g
         id="bo-id2"
         class="BackgroundObjects" /></g></g><circle
     style="fill:#5cb85c;fill-opacity:1;fill-rule:evenodd;stroke:none;stroke-width:30.54329681px;stroke-linecap:butt;stroke-linejoin:miter;stroke-opacity:1"
     id="path3494"
     cx="7603.3496"
     cy="7561.249"
     r="7376.9058"
     inkscape:export-xdpi="90"
     inkscape:export-ydpi="90" /><g
     class="SlideGroup"
     id="g3383"
     transform="matrix(0.54352944,0,0,0.54352944,1429.8922,-1550.9525)"
     inkscape:export-xdpi="90"
     inkscape:export-ydpi="90"><g
       id="g3385"><g
         id="id1"
         class="Slide"
         clip-path="url(#presentation_clip_path)"><g
           class="Page"
           id="g3388"><g
             class="com.sun.star.drawing.CustomShape"
             id="g3390"><g
               id="id3"><path
                 d="m 13350,27200 -4750,0 0,-19500 9500,0 0,19500 -4750,0 z"
                 id="path3393"
                 inkscape:connector-curvature="0"
                 style="fill:none;stroke:#000000;stroke-width:200;stroke-linejoin:round" /></g></g><g
             class="com.sun.star.drawing.CustomShape"
             id="g3395"><g
               id="id4"><path
                 d="m 7100,26200 -1500,-990 0,-19510 3000,1981 0,19509 -1500,-990 z"
                 id="path3398"
                 inkscape:connector-curvature="0"
                 style="fill:none;stroke:#000000;stroke-width:200;stroke-linejoin:round" /></g></g><g
             class="com.sun.star.drawing.CustomShape"
             id="g3400"><g
               id="id5"><path
                 d="m 13348,7701 -4750,-2 -3003,-2002 9500,3 3003,2002 -4750,-1 z"
                 id="path3403"
                 inkscape:connector-curvature="0"
                 style="fill:none;stroke:#000000;stroke-width:200;stroke-linejoin:round" /></g></g><g
             class="Group"
             id="g3405"><g
               class="com.sun.star.drawing.CustomShape"
               id="g3407"><g
                 id="id6"><path
                   d="m 13350,11600 -4750,0 0,-3900 9500,0 0,3900 -4750,0 z"
                   id="path3410"
                   inkscape:connector-curvature="0"
                   style="fill:none;stroke:#000000;stroke-width:200;stroke-linejoin:round" /></g></g><g
               class="com.sun.star.drawing.CustomShape"
               id="g3412"><g
                 id="id7"><path
                   d="m 10100,9200 c 283,0 500,217 500,500 0,283 -217,500 -500,500 -283,0 -500,-217 -500,-500 0,-283 217,-500 500,-500 z"
                   id="path3415"
                   inkscape:connector-curvature="0"
                   style="fill:none;stroke:#000000;stroke-width:200;stroke-linejoin:round" /></g></g><g
               class="com.sun.star.drawing.CustomShape"
               id="g3417"><g
                 id="id8"><path
                   d="m 16600,9200 c 283,0 500,217 500,500 0,283 -217,500 -500,500 -283,0 -500,-217 -500,-500 0,-283 217,-500 500,-500 z"
                   id="path3420"
                   inkscape:connector-curvature="0"
                   style="fill:none;stroke:#000000;stroke-width:200;stroke-linejoin:round" /></g></g></g><g
             class="Group"
             id="g3422"><g
               class="com.sun.star.drawing.CustomShape"
               id="g3424"><g
                 id="id9"><path
                   d="m 13350,15500 -4750,0 0,-3900 9500,0 0,3900 -4750,0 z"
                   id="path3427"
                   inkscape:connector-curvature="0"
                   style="fill:none;stroke:#000000;stroke-width:200;stroke-linejoin:round" /></g></g><g
               class="com.sun.star.drawing.CustomShape"
               id="g3429"><g
                 id="id10"><path
                   d="m 10100,13100 c 283,0 500,217 500,500 0,283 -217,500 -500,500 -283,0 -500,-217 -500,-500 0,-283 217,-500 500,-500 z"
                   id="path3432"
                   inkscape:connector-curvature="0"
                   style="fill:none;stroke:#000000;stroke-width:200;stroke-linejoin:round" /></g></g><g
               class="com.sun.star.drawing.CustomShape"
               id="g3434"><g
                 id="id11"><path
                   d="m 16600,13100 c 283,0 500,217 500,500 0,283 -217,500 -500,500 -283,0 -500,-217 -500,-500 0,-283 217,-500 500,-500 z"
                   id="path3437"
                   inkscape:connector-curvature="0"
                   style="fill:none;stroke:#000000;stroke-width:200;stroke-linejoin:round" /></g></g></g><g
             class="Group"
             id="g3439"><g
               class="com.sun.star.drawing.CustomShape"
               id="g3441"><g
                 id="id12"><path
                   d="m 13350,19400 -4750,0 0,-3900 9500,0 0,3900 -4750,0 z"
                   id="path3444"
                   inkscape:connector-curvature="0"
                   style="fill:none;stroke:#000000;stroke-width:200;stroke-linejoin:round" /></g></g><g
               class="com.sun.star.drawing.CustomShape"
               id="g3446"><g
                 id="id13"><path
                   d="m 10100,17000 c 283,0 500,217 500,500 0,283 -217,500 -500,500 -283,0 -500,-217 -500,-500 0,-283 217,-500 500,-500 z"
                   id="path3449"
                   inkscape:connector-curvature="0"
                   style="fill:none;stroke:#000000;stroke-width:200;stroke-linejoin:round" /></g></g><g
               class="com.sun.star.drawing.CustomShape"
               id="g3451"><g
                 id="id14"><path
                   d="m 16600,17000 c 283,0 500,217 500,500 0,283 -217,500 -500,500 -283,0 -500,-217 -500,-500 0,-283 217,-500 500,-500 z"
                   id="path3454"
                   inkscape:connector-curvature="0"
                   style="fill:none;stroke:#000000;stroke-width:200;stroke-linejoin:round" /></g></g></g><g
             class="Group"
             id="g3456"><g
               class="com.sun.star.drawing.CustomShape"
               id="g3458"><g
                 id="id15"><path
                   d="m 13350,23300 -4750,0 0,-3900 9500,0 0,3900 -4750,0 z"
                   id="path3461"
                   inkscape:connector-curvature="0"
                   style="fill:none;stroke:#000000;stroke-width:200;stroke-linejoin:round" /></g></g><g
               class="com.sun.star.drawing.CustomShape"
               id="g3463"><g
                 id="id16"><path
                   d="m 10100,20900 c 283,0 500,217 500,500 0,283 -217,500 -500,500 -283,0 -500,-217 -500,-500 0,-283 217,-500 500,-500 z"
                   id="path3466"
                   inkscape:connector-curvature="0"
                   style="fill:none;stroke:#000000;stroke-width:200;stroke-linejoin:round" /></g></g><g
               class="com.sun.star.drawing.CustomShape"
               id="g3468"><g
                 id="id17"><path
                   d="m 16600,20900 c 283,0 500,217 500,500 0,283 -217,500 -500,500 -283,0 -500,-217 -500,-500 0,-283 217,-500 500,-500 z"
                   id="path3471"
                   inkscape:connector-curvature="0"
                   style="fill:none;stroke:#000000;stroke-width:200;stroke-linejoin:round" /></g></g></g><g
             class="Group"
             id="g3473"><g
               class="com.sun.star.drawing.CustomShape"
               id="g3475"><g
                 id="id18"><path
                   d="m 13350,27200 -4750,0 0,-3900 9500,0 0,3900 -4750,0 z"
                   id="path3478"
                   inkscape:connector-curvature="0"
                   style="fill:none;stroke:#000000;stroke-width:200;stroke-linejoin:round" /></g></g><g
               class="com.sun.star.drawing.CustomShape"
               id="g3480"><g
                 id="id19"><path
                   d="m 10100,24800 c 283,0 500,217 500,500 0,283 -217,500 -500,500 -283,0 -500,-217 -500,-500 0,-283 217,-500 500,-500 z"
                   id="path3483"
                   inkscape:connector-curvature="0"
                   style="fill:none;stroke:#000000;stroke-width:200;stroke-linejoin:round" /></g></g><g
               class="com.sun.star.drawing.CustomShape"
               id="g3485"><g
                 id="id20"><path
                   d="m 16600,24800 c 283,0 500,217 500,500 0,283 -217,500 -500,500 -283,0 -500,-217 -500,-500 0,-283 217,-500 500,-500 z"
                   id="path3488"
                   inkscape:connector-curvature="0"
                   style="fill:none;stroke:#000000;stroke-width:200;stroke-linejoin:round" /></g></g></g></g></g></g></g></svg>